<?xml version="1.0" encoding="UTF-8"?>
<svg version="1.1" xmlns="http://www.w3.org/2000/svg" width="225" height="225">
<path d="M0 0 C74.25 0 148.5 0 225 0 C225 74.25 225 148.5 225 225 C150.75 225 76.5 225 0 225 C0 150.75 0 76.5 0 0 Z " fill="#FEFEFE" transform="translate(0,0)"/>
<path d="M0 0 C4.38655052 2.23092806 6.53127897 5.16208224 8.8828125 9.30078125 C9.67945313 8.96304688 10.47609375 8.6253125 11.296875 8.27734375 C12.35648438 7.83132812 13.41609375 7.3853125 14.5078125 6.92578125 C15.55195312 6.48492187 16.59609375 6.0440625 17.671875 5.58984375 C18.73148438 5.16445313 19.79109375 4.7390625 20.8828125 4.30078125 C21.77484375 3.924375 22.666875 3.54796875 23.5859375 3.16015625 C28.39304339 1.90711917 33.0584715 1.91819697 38.0078125 1.92578125 C39.54779907 1.9271106 39.54779907 1.9271106 41.11889648 1.9284668 C48.76175302 2.04780125 54.93381251 2.95229939 61.8828125 6.30078125 C62.55699219 6.60886719 63.23117188 6.91695312 63.92578125 7.234375 C65.2681851 7.87639423 66.58203922 8.57812943 67.8828125 9.30078125 C68.34171875 8.74648438 68.800625 8.1921875 69.2734375 7.62109375 C69.88703125 6.89664063 70.500625 6.1721875 71.1328125 5.42578125 C71.73609375 4.70648438 72.339375 3.9871875 72.9609375 3.24609375 C75.66637957 0.50765848 77.63901778 -0.55454776 81.46875 -1 C86.9963606 -1.02322525 91.22958631 -1.02295174 95.8828125 2.30078125 C101.33753969 7.87441257 102.23732454 11.66052308 102.1640625 19.31640625 C101.66219274 24.641802 99.12895874 27.20298575 95.2578125 30.61328125 C92.8828125 32.30078125 92.8828125 32.30078125 90.8828125 33.30078125 C91.50207394 36.68567631 92.38016262 39.84579249 93.4453125 43.11328125 C97.32573969 57.51526474 94.88097979 71.24101815 88.34375 84.3984375 C80.01634922 98.42872649 68.44334425 107.0201827 52.9609375 111.5390625 C37.39311594 115.39150565 23.36342349 113.09956405 9.51171875 105.0546875 C-2.56591799 96.99694768 -11.8035101 85.20469244 -15.73046875 71.09765625 C-17.51352333 58.20202919 -16.70845799 45.4963435 -12.1171875 33.30078125 C-13.05046875 33.03007813 -13.98375 32.759375 -14.9453125 32.48046875 C-19.57099012 30.76008126 -21.80229716 27.57195548 -24.234375 23.37109375 C-26.05864336 19.09294229 -25.74780421 14.53587845 -24.5 10.11328125 C-22.52169206 5.49139368 -19.86819615 2.57407426 -15.4609375 0.1484375 C-10.39199674 -1.68482941 -5.11623526 -1.68967917 0 0 Z " fill="#8C6239" transform="translate(78.1171875,49.69921875)"/>
<path d="M0 0 C1.37696045 0.01353516 1.37696045 0.01353516 2.78173828 0.02734375 C10.66411045 0.22863149 17.52664353 0.96976227 23.69921875 6.2734375 C30.11289049 13.06438404 31.03459751 19.69896261 30.87109375 28.8359375 C30.08039717 38.0640672 26.19853774 45.97708519 19.5625 52.4375 C10.81233757 58.84170208 3.37350897 60.52109191 -7.4375 59.4375 C-15.3302871 57.00643436 -21.68147576 52.05530657 -25.90625 44.9765625 C-30.768808 35.56242405 -33.41001233 26.39841804 -30.78515625 15.8046875 C-28.60936857 10.2951822 -25.45924836 6.5506603 -20.4375 3.4375 C-13.71499581 0.69461081 -7.20696735 -0.08502229 0 0 Z " fill="#C49A6C" transform="translate(117.4375,97.5625)"/>
<path d="M0 0 C0.68449219 -0.00966797 1.36898437 -0.01933594 2.07421875 -0.02929688 C6.72452469 0.04701123 10.0048172 0.9638125 13.9375 3.4375 C14.8125 5.625 14.8125 5.625 14.9375 7.4375 C9.96087776 11.5254397 5.94203815 11.61109835 -0.4375 11.6875 C-1.72398438 11.71328125 -3.01046875 11.7390625 -4.3359375 11.765625 C-8.30887404 11.41580669 -10.70320579 10.54978348 -14.0625 8.4375 C-14.9375 6.25 -14.9375 6.25 -15.0625 4.4375 C-10.26525782 0.59970625 -6.05213635 0.02761011 0 0 Z " fill="#44220C" transform="translate(117.0625,109.5625)"/>
<path d="M0 0 C3.60503166 1.13491737 5.24184758 1.95165272 7.375 5.0625 C7.05320716 8.94876735 4.88594494 11.0348134 2.3125 13.8125 C1.21228516 15.01132813 1.21228516 15.01132813 0.08984375 16.234375 C-0.47605469 16.83765625 -1.04195312 17.4409375 -1.625 18.0625 C-7.375 16.4375 -7.375 16.4375 -9.625 13.0625 C-10.02451993 9.96622055 -10.27450348 8.02262648 -9.625 5.0625 C-6.49597232 1.32293034 -4.91526448 0.08474594 0 0 Z " fill="#42210B" transform="translate(72.625,57.9375)"/>
<path d="M0 0 C4.45850936 0.79616239 5.90783917 1.93313458 8.5 5.625 C9.125 9.125 9.125 9.125 8.5 12.625 C6.125 15.5625 6.125 15.5625 3.5 17.625 C1.5 17.625 1.5 17.625 -0.12109375 16.015625 C-0.72050781 15.30921875 -1.31992188 14.6028125 -1.9375 13.875 C-2.53433594 13.17890625 -3.13117188 12.4828125 -3.74609375 11.765625 C-5.39081098 9.75826411 -6.96126108 7.71429688 -8.5 5.625 C-5.76057998 2.30449088 -4.30649943 0.76901776 0 0 Z " fill="#42210B" transform="translate(160.5,57.375)"/>
<path d="M0 0 C2.10698444 1.02476061 4.1442386 2.0862296 6.15625 3.2890625 C12.76236352 7.05454721 18.45201107 8.36141641 26 7 C30.52151509 5.32196178 34.76229426 3.29656311 39 1 C39 2.32 39 3.64 39 5 C30.95327642 9.79379277 24.41880464 12.46625191 15 11 C8.90874663 9.44177239 3.59388858 7.43547862 -1 3 C-0.67 2.01 -0.34 1.02 0 0 Z " fill="#080604" transform="translate(97,130)"/>
<path d="M0 0 C2.375 0.75 2.375 0.75 3.375 1.75 C3.5625 4.1875 3.5625 4.1875 3.375 6.75 C2.715 7.41 2.055 8.07 1.375 8.75 C-1.75 8.375 -1.75 8.375 -4.625 7.75 C-5.3125 5.4375 -5.3125 5.4375 -5.625 2.75 C-3.9659358 -0.015107 -3.22812218 -0.30744021 0 0 Z " fill="#050402" transform="translate(100.625,85.25)"/>
<path d="M0 0 C3.0625 0.1875 3.0625 0.1875 5.0625 2.1875 C4.50694444 6.74305556 4.50694444 6.74305556 3.0625 8.1875 C0.0625 8.3125 0.0625 8.3125 -2.9375 8.1875 C-3.9375 7.1875 -3.9375 7.1875 -4.0625 4.1875 C-3.89838889 0.24883333 -3.89838889 0.24883333 0 0 Z " fill="#070502" transform="translate(133.9375,85.8125)"/>
<path d="M0 0 C0 4.38968456 -2.12805101 5.76905739 -5 9 C-5.66 8.67 -6.32 8.34 -7 8 C-3.375 2.25 -3.375 2.25 0 0 Z " fill="#91683F" transform="translate(61,51)"/>
</svg>
